<?xml version="1.0" encoding="utf-8"?>
<!-- Generator: Adobe Illustrator 16.0.0, SVG Export Plug-In . SVG Version: 6.00 Build 0)  -->
<!DOCTYPE svg PUBLIC "-//W3C//DTD SVG 1.1//EN" "http://www.w3.org/Graphics/SVG/1.1/DTD/svg11.dtd">
<!--suppress ALL -->
<svg version="1.1" id="Layer_1" xmlns="http://www.w3.org/2000/svg" xmlns:xlink="http://www.w3.org/1999/xlink" x="0px" y="0px"
	 width="1457.01px" height="1457.01px" viewBox="0 0 1457.01 1457.01" enable-background="new 0 0 1457.01 1457.01"
	 xml:space="preserve">
<g>
	<circle fill="#008F54" cx="728.505" cy="728.505" r="708.663"/>
	<circle fill="#007E46" cx="728.505" cy="728.505" r="680.315"/>
	<circle fill="#007642" cx="728.505" cy="728.505" r="637.795"/>
	<circle fill="#FFFFFF" stroke="#000000" stroke-miterlimit="10" cx="728.505" cy="728.505" r="609.448"/>
</g>
<path fill="#064631" d="M256.628,1052.038l283.965,117.236l436.198-152.226l284.228-426.884c0,0-356.429,242.781-483.749,302.656"/>
<path fill="#064631" d="M537.139,299.92L354.228,946.069l363.011-63.4C759.613,851.046,656.805,409.613,537.139,299.92z"/>
<path fill="#0B5A40" d="M535.818,249.086c0,0,203.053,207.802,218.944,609.853c0,0,123.306-90.964,289.277-233.264
	C1044.04,625.676,873.063,346.211,535.818,249.086z"/>
</svg>
